<?xml version="1.0" standalone="no"?>
<!DOCTYPE svg PUBLIC "-//W3C//DTD SVG 20010904//EN"
 "http://www.w3.org/TR/2001/REC-SVG-20010904/DTD/svg10.dtd">
<svg version="1.0" xmlns="http://www.w3.org/2000/svg"
 width="64.000000pt" height="64.000000pt" viewBox="0 0 64.000000 64.000000"
 preserveAspectRatio="xMidYMid meet">
<metadata>
Created by potrace 1.16, written by Peter Selinger 2001-2019
</metadata>
<g transform="translate(0.000000,64.000000) scale(0.100000,-0.100000)"
fill="#000000" stroke="none">
<path d="M350 430 c-6 -11 -17 -20 -25 -20 -8 0 -15 -5 -15 -11 0 -7 -7 -8
-17 -4 -10 4 -29 9 -43 11 -14 3 -32 7 -41 10 -20 6 -43 -20 -59 -68 -12 -31
-11 -40 3 -62 9 -13 28 -33 42 -43 15 -10 49 -36 77 -58 102 -80 92 -84 85 35
-6 114 -12 140 -33 140 -16 0 -29 -60 -20 -101 4 -22 2 -29 -7 -27 -17 6 -20
78 -4 108 30 59 74 20 84 -74 6 -58 22 -77 24 -28 l1 27 7 -29 c5 -27 8 -23
29 43 22 68 23 104 2 71 -6 -8 -10 -10 -10 -5 0 6 7 21 16 33 15 22 15 25 -7
48 -28 30 -74 32 -89 4z"/>
</g>
</svg>
